<svg xmlns="http://www.w3.org/2000/svg" xmlns:xlink="http://www.w3.org/1999/xlink" version="1.1" x="0px" y="0px" viewBox="0 0 100 125" style="enable-background:new 0 0 100 100;" xml:space="preserve"><g><path d="M83.7,26.3c0-0.8-0.3-1.6-0.9-2.2L66,6.1c-0.6-0.7-1.5-1-2.4-1h-42c-2.9,0-5.3,2.4-5.3,5.3v79.3c0,2.9,2.4,5.3,5.3,5.3   h56.9c2.9,0,5.3-2.4,5.3-5.3L83.7,26.3z M33.8,76.2c-2.1,0-4-0.9-4.8-1.5c-0.4-0.4-0.8-0.8-0.2-1.6l0.7-0.9   c0.4-0.6,0.9-0.7,1.6-0.3c0.5,0.3,1.4,0.9,2.7,0.9c1.1,0,1.6-0.5,1.6-1c0-2.1-6.6-1.8-6.6-6.5c0-2.8,2.3-4.6,5.4-4.6   c1.7,0,3.3,0.6,4.1,1.1c0.6,0.4,0.7,1,0.4,1.6l-0.5,1c-0.4,0.8-1,0.7-1.6,0.4c-0.7-0.3-1.4-0.7-2.4-0.7c-1.2,0-1.6,0.5-1.6,1   c0,2.2,6.6,1.7,6.6,6.4C39.1,74,37.2,76.2,33.8,76.2z M54.9,62.2L50.4,75c-0.2,0.6-0.7,0.9-1.3,0.9h-1.8c-0.7,0-1.1-0.3-1.3-0.9   l-4.5-12.8c-0.3-0.8,0.1-1.3,0.9-1.3h1.6c0.7,0,1.1,0.3,1.3,1l2.4,7.6c0.3,0.9,0.6,2.4,0.6,2.4h0c0,0,0.3-1.5,0.6-2.4l2.4-7.6   c0.2-0.7,0.6-1,1.3-1H54C54.8,60.9,55.2,61.4,54.9,62.2z M71.4,74.8c0,0.8-0.4,1.2-1.2,1.2h-0.7c-0.8,0-1.2-0.4-1.2-0.9v0   c0-0.1,0-0.2,0-0.2h0c0,0-1.3,1.4-4,1.4c-3.9,0-7.4-2.9-7.4-7.7c0-4.6,3.3-7.9,7.9-7.9c2.4,0,4.3,0.9,4.9,1.3   c0.6,0.5,0.7,0.9,0.3,1.6l-0.5,0.9c-0.4,0.6-0.9,0.7-1.6,0.3c-0.7-0.4-1.5-0.7-2.8-0.7c-3,0-4.3,2-4.3,4.3c0,2.8,2,4.5,4.3,4.5   c2.1,0,3.1-1.2,3.1-1.2v-1h-1c-0.8,0-1.2-0.4-1.2-1.2v-0.8c0-0.8,0.4-1.2,1.2-1.2h3.1c0.8,0,1.2,0.4,1.2,1.2V74.8z M79.1,27.3h-11   c-2.9,0-5.3-2.4-5.3-5.3V10.2c0-0.3,0.4-0.4,0.6-0.2l16,16.7C79.5,26.9,79.4,27.3,79.1,27.3z"/></g><text x="0" y="115" fill="#000000" font-size="5px" font-weight="bold" font-family="'Helvetica Neue', Helvetica, Arial-Unicode, Arial, Sans-serif">Created by Viktor Vorobyev</text><text x="0" y="120" fill="#000000" font-size="5px" font-weight="bold" font-family="'Helvetica Neue', Helvetica, Arial-Unicode, Arial, Sans-serif">from the Noun Project</text></svg>