<svg xmlns="http://www.w3.org/2000/svg" xmlns:xlink="http://www.w3.org/1999/xlink" version="1.1" x="0px" y="0px" viewBox="0 0 100 125" style="enable-background:new 0 0 100 100;" xml:space="preserve"><g><g><polygon points="49.6,55.5 50,56.5 50.4,55.5 51.9,49.6 53.5,46.2 52.7,38.7 50.9,33.1 50,32.2 49.1,33.1 47.3,38.7 46.5,46.2     48.1,49.6   "/><path d="M42.3,54.2l3.8,5.2l0.4,3.5l-3.3-4.7l-4-1.5l-3.1,0.4l0.3,2.6l1.9-0.8h3.1l1.7,3.2l0.5,3v1.8l-2.2-3.2l-2-0.6l-2.3,0.7    l-0.2,0l3.8,14.5l1.2-1.7l2.8-9.6l3.5,1.3l1.8,1.7l1.8-1.7l3.5-1.3l2.8,9.6l1.2,1.7l3.8-14.5l-0.2,0L60.6,63l-2,0.6l-2.2,3.2V65    l1.7-2l1.7-0.9l1-1l-2.2-0.6L57,62.1l1.7-3.2h3.1l1.9,0.8l0.3-2.6l-3.1-0.4l-4,1.5l-3.3,4.7l0.4-3.5l3.8-5.2l1.2-0.7l5.3,0.6    l0.6-5.2v-6l-5,4.9l0.9-2.1l0.7-3l-1.3-2l0.7-4.7l-1.6-1.5l-7.6-7.8L50,26.1l-1.5,0.5l-7.6,7.8l-1.6,1.5l0.7,4.7l-1.3,2l0.7,3    l0.9,2.1l-5-4.9v6l0.6,5.2l5.3-0.6L42.3,54.2z M59.8,49.8l2.2-2.3h0.4h0.8h0.5l-1,4.1l-0.4,0l0,0l-2.5-0.2l-0.1,0L58,51.7l0,0    l-0.3,0L59.8,49.8z M57.7,34.9l0.5,3.9l1.6,5.8L56,53l-4.5,6.6L50.4,65v-7.2l4.7-6.2l2.6-8.2l-1.3-5.3l-0.8-3l-4-5.7L57.7,34.9z     M50,30.3l5.1,9.2l0.5,7.5l-3.3,6L50,57.1L47.8,53l-3.3-6l0.5-7.5L50,30.3z M41.8,38.7l0.5-3.9l6.2-5.4l-4,5.7l-0.8,3l-1.3,5.3    l2.6,8.2l4.7,6.2V65l-1.1-5.4L44,53l-3.8-8.5L41.8,38.7z M40.2,51.5l-2.5,0.2l0,0l-0.4,0l-1-4.1h0.5h0.8H38l2.2,2.3l2.1,1.9    l-0.3,0l0,0l-1.7-0.2L40.2,51.5z"/><polygon points="56,76.9 54.3,69 52.2,70.1 50,72 47.8,70.1 45.7,69 44,76.9 41.5,81.5 39.4,85.2 41.4,87.7 42.2,91.6 45.8,93.9     50,94.7 54.2,93.9 57.8,91.6 58.6,87.7 60.6,85.2 58.5,81.5   "/><path d="M61.8,7.3l-7.1,7.4v10.9l-2.4-1.8l1.2-13.3l-1.9-4.4L50,5.3l-1.7,0.7l-1.9,4.4l1.2,13.3l-2.4,1.8V14.7l-7.1-7.4l-6.1,4.8    l1.7,12.7l6.1,5.6l-4.7,7.7v0.8l5-5.9l3.3-2.5l3.8-4.7l2.7-0.5l2.7,0.5l3.8,4.7l3.3,2.5l5,5.9v-0.8l-4.7-7.7l6.1-5.6l1.7-12.7    L61.8,7.3z M41.8,27.9l-5.5-3.4l-2.2-10.7l4.6-3.1l3.9,3.9l0.9,12.1L41.8,27.9z M63.7,24.5l-5.5,3.4l-1.7-1.2l0.9-12.1l3.9-3.9    l4.6,3.1L63.7,24.5z"/></g></g><text x="0" y="115" fill="#000000" font-size="5px" font-weight="bold" font-family="'Helvetica Neue', Helvetica, Arial-Unicode, Arial, Sans-serif">Created by Cole M Johnstone</text><text x="0" y="120" fill="#000000" font-size="5px" font-weight="bold" font-family="'Helvetica Neue', Helvetica, Arial-Unicode, Arial, Sans-serif">from the Noun Project</text></svg>